<?xml version="1.0" encoding="UTF-8"?>
<svg id="Layer_2" data-name="Layer 2" xmlns="http://www.w3.org/2000/svg" viewBox="0 0 93.6 93.6">
    <defs>
        <style>
            .cls-1 {
                fill: #19568c;
            }

            .cls-1, .cls-2 {
                stroke-width: 0px;
            }

            .cls-3 {
                fill: none;
                stroke: #fff;
                stroke-miterlimit: 10;
            }

            .cls-2 {
                fill: #fff;
            }
        </style>
    </defs>
    <g id="Layer_1-2" data-name="Layer 1">
        <g id="Layer_2-2" data-name="Layer 2">
            <g>
                <path class="cls-1" d="M83.7,93.6H9.9c-5.5,0-9.9-4.4-9.9-9.9V9.9C0,4.4,4.4,0,9.9,0h73.8c5.5,0,9.9,4.4,9.9,9.9v73.8c.1,5.5-4.4,9.9-9.9,9.9Z"/>
                <path class="cls-2" d="M58.5,43.7v21.5c0,2.2.5,3.6,1.6,4.3,1.1.7,2.6.7,4.6-.1,2-.8,3.6-2,4.7-3.6,1.1-1.6,1.6-3.5,1.6-5.6v-21.5l8.7-3.5v21.5c0,3.2-.7,6.2-2,9s-3.2,5.2-5.5,7.2c-2.3,2.1-4.8,3.7-7.7,4.8-2.8,1.1-5.3,1.6-7.6,1.4-2.2-.2-4-1.2-5.3-2.9-1.3-1.7-1.9-4.2-1.9-7.4v-21.5l8.8-3.6Z"/>
                <path class="cls-2" d="M36.1,47.8c2.7,2.8,4.8,5.8,6.3,9.2,1.5,3.4,2.2,6.9,2.2,10.4s-.8,6.3-2.2,8.4c-1.5,2.1-3.6,3.2-6.3,3.5-2.7.2-5.9-.4-9.5-2.1l-12.9-5.9v-36l12.9,5.9c3.6,1.6,6.8,3.8,9.5,6.6ZM33.4,70c1.8-1,2.7-3.2,2.7-6.5s-.9-6.3-2.7-9c-1.8-2.6-4.2-4.7-7.4-6.2l-4-1.8v20.9l4,1.8c3.2,1.6,5.7,1.8,7.4.8Z"/>
            </g>
        </g>
        <path class="cls-2" d="M48.9,36.8s-3.3-2.5-8-2.1c0,0-.3-2.9-5.9-4.3-1-.2-2.4-.5-4.2-.3-.7.1-1.5.3-4.6,1.6-1.4.6-2.7,1.2-3.9,1.7,7,3.4,13.9,6.7,20.9,10.1l5.4-2.2c.1.1,5.6-1.4.3-4.5ZM27.1,33.5c.5-.2,1-.4,1.5-.5,1-.4,2-.8,3.1-1s2.2-.2,3.3.1c1,.3,2.2.8,2.8,1.8.2.4.2.7-.2,1-.6.4-1.4.6-2.1.8-.7.3-1.5.6-2.2.8h0c0,.1-6.2-3-6.2-3ZM46.9,39.8c-.3.1-.6.3-.8.4-.8.3-1.6.6-2.4,1-.2.1-.4.2-.6.3l-.2.1-6.7-3.4c.8-.3,1.7-.6,2.5-.9.8-.3,1.6-.7,2.5-.9,1.9-.4,3.9.1,5.6,1.1.7.4,1.5,1.2.8,2-.3.1-.5.2-.7.3Z"/>
        <path class="cls-2" d="M34.6,28.2c.1,0,20.2,10.7,20.2,10.7l2.5-.7s-17.7-9-17.2-8.9,21.3,7.4,21.3,7.4l2.3-.9-13-9.6,17.1,7.9,2.3-.8-21.2-9.7-2.7,1,12.6,9.3-20.9-6.8-3.3,1.1Z"/>
        <path class="cls-3" d="M45.9,20.7l30.1,13c.4.2.4.8,0,.9l-31.4,11.9c-.1.1-.3,0-.4,0l-27.8-13.5c-.4-.2-.4-.8,0-.9l29.1-11.4c.1-.1.3-.1.4,0Z"/>
    </g>
</svg>
